<svg width="16" height="16" viewBox="0 0 16 16" fill="none" xmlns="http://www.w3.org/2000/svg">
<g clip-path="url(#clip0_138_34611)">
<path d="M10.6667 14.6663C9.40933 14.6663 8.78133 14.6663 8.39067 14.2757C8 13.885 8 13.257 8 11.9997V3.99967C8 2.74234 8 2.11434 8.39067 1.72367C8.78133 1.33301 9.40933 1.33301 10.6667 1.33301H12C13.2573 1.33301 13.8853 1.33301 14.276 1.72367C14.6667 2.11434 14.6667 2.74234 14.6667 3.99967V11.9997C14.6667 13.257 14.6667 13.885 14.276 14.2757C13.8853 14.6663 13.2573 14.6663 12 14.6663H10.6667Z" stroke="#4837F3"/>
<path opacity="0.5" d="M8 8H9.33333M8 4H9.33333M8 12H9.33333M8 10H10M8 6H10" stroke="#4837F3" stroke-linecap="round"/>
<path d="M4.0067 14.0177L3.8147 14.383C3.76781 14.4698 3.69803 14.5421 3.61294 14.5921C3.52784 14.642 3.43069 14.6677 3.33203 14.6663C3.23337 14.6677 3.13622 14.642 3.05113 14.5921C2.96603 14.5421 2.89625 14.4698 2.84936 14.383L2.65736 14.0177M4.0067 14.0177H2.65736M4.0067 14.0177L4.79336 12.523C4.97936 12.1697 5.07203 11.9937 5.14003 11.8097C5.22181 11.5928 5.27736 11.3697 5.3067 11.1403C5.33203 10.947 5.33203 10.7497 5.33203 10.3557V3.23301C5.33203 2.18367 4.4367 1.33301 3.33203 1.33301C2.22736 1.33301 1.33203 2.18367 1.33203 3.23301V10.3557C1.33203 10.7497 1.33203 10.947 1.35736 11.1403C1.38714 11.3697 1.4427 11.593 1.52403 11.8103C1.59203 11.9937 1.6847 12.1703 1.8707 12.523L2.65736 14.0177" stroke="#4837F3"/>
<path opacity="0.5" d="M1.33203 3.86621C1.33203 3.86621 2.08203 4.49954 3.33203 4.49954C4.58203 4.49954 5.33203 3.86621 5.33203 3.86621" stroke="#4837F3"/>
</g>
<defs>
<clipPath id="clip0_138_34611">
<rect width="16" height="16" fill="white"/>
</clipPath>
</defs>
</svg>
