<svg width="16" height="16" viewBox="0 0 16 16" fill="none" xmlns="http://www.w3.org/2000/svg">
<g clip-path="url(#clip0_138_34619)">
<path opacity="0.5" d="M1.33203 7.99967H14.6654M10.6654 7.99967C10.6654 8.87501 10.596 9.74234 10.462 10.551C10.3287 11.3597 10.132 12.0943 9.88403 12.7137C9.6367 13.333 9.3427 13.8237 9.01936 14.159C8.69536 14.4937 8.3487 14.6663 7.9987 14.6663C7.6487 14.6663 7.30203 14.4937 6.9787 14.159C6.6547 13.8237 6.3607 13.3323 6.11336 12.7137C5.86536 12.0943 5.6687 11.3603 5.5347 10.551C5.39797 9.70748 5.33019 8.85421 5.33203 7.99967C5.33203 7.12434 5.4007 6.25701 5.5347 5.44834C5.6687 4.63967 5.86536 3.90501 6.11336 3.28567C6.3607 2.66634 6.6547 2.17567 6.97803 1.84034C7.30203 1.50634 7.6487 1.33301 7.9987 1.33301C8.3487 1.33301 8.69536 1.50567 9.0187 1.84034C9.3427 2.17567 9.6367 2.66701 9.88403 3.28567C10.132 3.90501 10.3287 4.63901 10.462 5.44834C10.5967 6.25701 10.6654 7.12434 10.6654 7.99967Z" stroke="#4837F3" stroke-linecap="round"/>
<path d="M14.666 8.00001C14.666 8.87553 14.4936 9.74248 14.1585 10.5514C13.8235 11.3602 13.3324 12.0952 12.7133 12.7143C12.0942 13.3334 11.3593 13.8245 10.5504 14.1595C9.7415 14.4946 8.87455 14.667 7.99903 14.667C7.12351 14.667 6.25656 14.4946 5.44768 14.1595C4.6388 13.8245 3.90384 13.3334 3.28475 12.7143C2.66566 12.0952 2.17457 11.3602 1.83953 10.5514C1.50448 9.74248 1.33203 8.87553 1.33203 8.00001C1.33203 6.23181 2.03445 4.53603 3.28475 3.28573C4.53506 2.03542 6.23083 1.33301 7.99903 1.33301C9.76723 1.33301 11.463 2.03542 12.7133 3.28573C13.9636 4.53603 14.666 6.23181 14.666 8.00001Z" stroke="#4837F3"/>
</g>
<defs>
<clipPath id="clip0_138_34619">
<rect width="16" height="16" fill="white"/>
</clipPath>
</defs>
</svg>
